{
  "accessors": [
    {
      "bufferView": 2,
      "componentType": 5126,
      "count": 20113,
      "max": [
        1.381790041923523,
        0.7384899854660034,
        0.3793700039386749
      ],
      "min": [
        -1.381790041923523,
        -0.759090006351471,
        -3.3489999771118164
      ],
      "type": "VEC3"
    },
    {
      "bufferView": 2,
      "byteOffset": 241356,
      "componentType": 5126,
      "count": 20113,
      "max": [
        1.0,
        0.9999648928642273,
        0.9999658465385437
      ],
      "min": [
        -0.9998753666877747,
        -0.9999926686286926,
        -0.9999997019767761
      ],
      "type": "VEC3"
    },
    {
      "bufferView": 1,
      "componentType": 5126,
      "count": 20113,
      "max": [
        1.0,
        0.9227700233459473
      ],
      "min": [
        0.0,
        0.0
      ],
      "type": "VEC2"
    },
    {
      "bufferView": 0,
      "componentType": 5125,
      "count": 117576,
      "type": "SCALAR"
    },
    {
      "bufferView": 2,
      "byteOffset": 482712,
      "componentType": 5126,
      "count": 19425,
      "max": [
        1.409250020980835,
        0.7464900016784668,
        1.34538996219635
      ],
      "min": [
        -1.409250020980835,
        -0.817300021648407,
        -2.5485599040985107
      ],
      "type": "VEC3"
    },
    {
      "bufferView": 2,
      "byteOffset": 715812,
      "componentType": 5126,
      "count": 19425,
      "max": [
        0.9998127818107605,
        0.9999997019767761,
        0.9999997019767761
      ],
      "min": [
        -0.9998121857643127,
        -0.9999991059303284,
        -0.9996734857559204
      ],
      "type": "VEC3"
    },
    {
      "bufferView": 1,
      "byteOffset": 160904,
      "componentType": 5126,
      "count": 19425,
      "max": [
        0.7753900289535522,
        0.9502000212669373
      ],
      "min": [
        0.0,
        0.0
      ],
      "type": "VEC2"
    },
    {
      "bufferView": 0,
      "byteOffset": 470304,
      "componentType": 5125,
      "count": 113688,
      "type": "SCALAR"
    },
    {
      "bufferView": 2,
      "byteOffset": 948912,
      "componentType": 5126,
      "count": 4012,
      "max": [
        0.3398900032043457,
        -0.5758100152015686,
        -0.8750900030136108
      ],
      "min": [
        -0.37797999382019043,
        -0.8221099972724915,
        -2.3234200477600098
      ],
      "type": "VEC3"
    },
    {
      "bufferView": 2,
      "byteOffset": 997056,
      "componentType": 5126,
      "count": 4012,
      "max": [
        0.9989191889762878,
        0.9994981288909912,
        0.9977227449417114
      ],
      "min": [
        -0.9989191889762878,
        -0.9998605847358704,
        -0.9977232813835144
      ],
      "type": "VEC3"
    },
    {
      "bufferView": 1,
      "byteOffset": 316304,
      "componentType": 5126,
      "count": 4012,
      "max": [
        0.0,
        0.0
      ],
      "min": [
        0.0,
        0.0
      ],
      "type": "VEC2"
    },
    {
      "bufferView": 0,
      "byteOffset": 925056,
      "componentType": 5125,
      "count": 20640,
      "type": "SCALAR"
    },
    {
      "bufferView": 2,
      "byteOffset": 1045200,
      "componentType": 5126,
      "count": 7331,
      "max": [
        0.8043000102043152,
        0.7389299869537354,
        -2.082390069961548
      ],
      "min": [
        -0.8043000102043152,
        -0.7086300253868103,
        -3.2917299270629883
      ],
      "type": "VEC3"
    },
    {
      "bufferView": 2,
      "byteOffset": 1133172,
      "componentType": 5126,
      "count": 7331,
      "max": [
        1.0,
        0.9997766613960266,
        0.9988508224487305
      ],
      "min": [
        -1.0,
        -0.9981945157051086,
        -0.9999585747718811
      ],
      "type": "VEC3"
    },
    {
      "bufferView": 1,
      "byteOffset": 348400,
      "componentType": 5126,
      "count": 7331,
      "max": [
        0.30897998809814453,
        0.5714700222015381
      ],
      "min": [
        0.0,
        0.0
      ],
      "type": "VEC2"
    },
    {
      "bufferView": 0,
      "byteOffset": 1007616,
      "componentType": 5125,
      "count": 44496,
      "type": "SCALAR"
    },
    {
      "bufferView": 2,
      "byteOffset": 1221144,
      "componentType": 5126,
      "count": 1660,
      "max": [
        0.5703099966049194,
        0.3362500071525574,
        -3.054229974746704
      ],
      "min": [
        -0.5703099966049194,
        -0.09132000058889389,
        -3.379309892654419
      ],
      "type": "VEC3"
    },
    {
      "bufferView": 2,
      "byteOffset": 1241064,
      "componentType": 5126,
      "count": 1660,
      "max": [
        0.9839670062065125,
        0.9903661608695984,
        0.9996077418327332
      ],
      "min": [
        -0.9839670062065125,
        -0.9903330206871033,
        -0.9996519088745117
      ],
      "type": "VEC3"
    },
    {
      "bufferView": 1,
      "byteOffset": 407048,
      "componentType": 5126,
      "count": 1660,
      "max": [
        0.21504999697208405,
        0.2880899906158447
      ],
      "min": [
        0.19039000570774078,
        0.25949999690055847
      ],
      "type": "VEC2"
    },
    {
      "bufferView": 0,
      "byteOffset": 1185600,
      "componentType": 5125,
      "count": 9936,
      "type": "SCALAR"
    },
    {
      "bufferView": 2,
      "byteOffset": 1260984,
      "componentType": 5126,
      "count": 1446,
      "max": [
        1.3578599691390991,
        0.3967300057411194,
        -0.3299199938774109
      ],
      "min": [
        -1.3578599691390991,
        -0.782069981098175,
        -1.9510400295257568
      ],
      "type": "VEC3"
    },
    {
      "bufferView": 2,
      "byteOffset": 1278336,
      "componentType": 5126,
      "count": 1446,
      "max": [
        0.992949903011322,
        0.9966585636138916,
        0.9997996687889099
      ],
      "min": [
        -0.992949903011322,
        -0.9998418092727661,
        -0.9988723993301392
      ],
      "type": "VEC3"
    },
    {
      "bufferView": 1,
      "byteOffset": 420328,
      "componentType": 5126,
      "count": 1446,
      "max": [
        1.0,
        1.0
      ],
      "min": [
        0.0,
        0.0
      ],
      "type": "VEC2"
    },
    {
      "bufferView": 0,
      "byteOffset": 1225344,
      "componentType": 5125,
      "count": 7992,
      "type": "SCALAR"
    },
    {
      "bufferView": 2,
      "byteOffset": 1295688,
      "componentType": 5126,
      "count": 228,
      "max": [
        0.30757999420166016,
        -0.5267800092697144,
        -0.09903000295162201
      ],
      "min": [
        -0.30757999420166016,
        -0.6277499794960022,
        -0.22089000046253204
      ],
      "type": "VEC3"
    },
    {
      "bufferView": 2,
      "byteOffset": 1298424,
      "componentType": 5126,
      "count": 228,
      "max": [
        0.960116982460022,
        0.9770904779434204,
        0.9720913767814636
      ],
      "min": [
        -0.960116982460022,
        -0.9265851378440857,
        -0.9948757290840149
      ],
      "type": "VEC3"
    },
    {
      "bufferView": 1,
      "byteOffset": 431896,
      "componentType": 5126,
      "count": 228,
      "max": [
        0.6992200016975403,
        0.7343800067901611
      ],
      "min": [
        0.27733999490737915,
        0.3242200016975403
      ],
      "type": "VEC2"
    },
    {
      "bufferView": 0,
      "byteOffset": 1257312,
      "componentType": 5125,
      "count": 1020,
      "type": "SCALAR"
    },
    {
      "bufferView": 2,
      "byteOffset": 1301160,
      "componentType": 5126,
      "count": 499,
      "max": [
        0.12926000356674194,
        -0.5472400188446045,
        -0.193340003490448
      ],
      "min": [
        -0.12926000356674194,
        -0.7979699969291687,
        -0.4318700134754181
      ],
      "type": "VEC3"
    },
    {
      "bufferView": 2,
      "byteOffset": 1307148,
      "componentType": 5126,
      "count": 499,
      "max": [
        1.0,
        0.6688094735145569,
        0.999944269657135
      ],
      "min": [
        -0.9948710799217224,
        -0.9988483190536499,
        -0.9994874000549316
      ],
      "type": "VEC3"
    },
    {
      "bufferView": 1,
      "byteOffset": 433720,
      "componentType": 5126,
      "count": 499,
      "max": [
        0.0,
        0.0
      ],
      "min": [
        0.0,
        0.0
      ],
      "type": "VEC2"
    },
    {
      "bufferView": 0,
      "byteOffset": 1261392,
      "componentType": 5125,
      "count": 2880,
      "type": "SCALAR"
    },
    {
      "bufferView": 2,
      "byteOffset": 1313136,
      "componentType": 5126,
      "count": 180,
      "max": [
        0.31292998790740967,
        -0.510200023651123,
        0.013939999975264072
      ],
      "min": [
        -0.31292998790740967,
        -0.6715700030326843,
        -0.09495999664068222
      ],
      "type": "VEC3"
    },
    {
      "bufferView": 2,
      "byteOffset": 1315296,
      "componentType": 5126,
      "count": 180,
      "max": [
        0.9611503481864929,
        0.9686513543128967,
        0.9877527356147766
      ],
      "min": [
        -0.9611503481864929,
        -0.9831588864326477,
        -0.9933602213859558
      ],
      "type": "VEC3"
    },
    {
      "bufferView": 1,
      "byteOffset": 437712,
      "componentType": 5126,
      "count": 180,
      "max": [
        1.0,
        0.5872499942779541
      ],
      "min": [
        0.0,
        0.0
      ],
      "type": "VEC2"
    },
    {
      "bufferView": 0,
      "byteOffset": 1272912,
      "componentType": 5125,
      "count": 876,
      "type": "SCALAR"
    }
  ],
  "asset": {
    "extras": {
      "author": "amdragg (https://sketchfab.com/amdragg)",
      "license": "CC-BY-4.0 (http://creativecommons.org/licenses/by/4.0/)",
      "source": "https://sketchfab.com/3d-models/band-of-brawlers-chef-revetoni-04addb74bb4946e78c49e5439e9f3e4f",
      "title": "Band of Brawlers: Chef Revetoni"
    },
    "generator": "Sketchfab-12.68.0",
    "version": "2.0"
  },
  "bufferViews": [
    {
      "buffer": 0,
      "byteLength": 1276416,
      "name": "floatBufferViews",
      "target": 34963
    },
    {
      "buffer": 0,
      "byteLength": 439152,
      "byteOffset": 1276416,
      "byteStride": 8,
      "name": "floatBufferViews",
      "target": 34962
    },
    {
      "buffer": 0,
      "byteLength": 1317456,
      "byteOffset": 1715568,
      "byteStride": 12,
      "name": "floatBufferViews",
      "target": 34962
    }
  ],
  "buffers": [
    {
      "byteLength": 3033024,
      "uri": "scene.bin"
    }
  ],
  "images": [
    {
      "uri": "textures/Face_baseColor.png"
    },
    {
      "uri": "textures/Mustache_baseColor.png"
    },
    {
      "uri": "textures/Eyes_baseColor.png"
    },
    {
      "uri": "textures/Eyebrows_baseColor.png"
    }
  ],
  "materials": [
    {
      "doubleSided": true,
      "name": "Face",
      "pbrMetallicRoughness": {
        "baseColorTexture": {
          "index": 0
        },
        "metallicFactor": 0.0,
        "roughnessFactor": 0.6
      }
    },
    {
      "doubleSided": true,
      "name": "Uniform",
      "pbrMetallicRoughness": {
        "metallicFactor": 0.0,
        "roughnessFactor": 0.6
      }
    },
    {
      "doubleSided": true,
      "name": "Buttons",
      "pbrMetallicRoughness": {
        "metallicFactor": 0.0,
        "roughnessFactor": 0.6
      }
    },
    {
      "doubleSided": true,
      "name": "Pants",
      "pbrMetallicRoughness": {
        "baseColorFactor": [
          0.0023897490464150906,
          0.0035300301387906075,
          0.11491993069648743,
          1.0
        ],
        "metallicFactor": 0.0,
        "roughnessFactor": 0.6
      }
    },
    {
      "doubleSided": true,
      "name": "Shoes",
      "pbrMetallicRoughness": {
        "baseColorFactor": [
          0.0,
          0.0,
          0.0,
          1.0
        ],
        "metallicFactor": 0.0,
        "roughnessFactor": 0.6
      }
    },
    {
      "doubleSided": true,
      "name": "Mustache",
      "pbrMetallicRoughness": {
        "baseColorTexture": {
          "index": 1
        },
        "metallicFactor": 0.0,
        "roughnessFactor": 0.6
      }
    },
    {
      "doubleSided": true,
      "name": "Eyes",
      "pbrMetallicRoughness": {
        "baseColorTexture": {
          "index": 2
        },
        "metallicFactor": 0.0,
        "roughnessFactor": 0.6
      }
    },
    {
      "doubleSided": true,
      "name": "Nose",
      "pbrMetallicRoughness": {
        "baseColorFactor": [
          0.3843303620815277,
          0.13810153305530548,
          0.21531154215335846,
          1.0
        ],
        "metallicFactor": 0.0,
        "roughnessFactor": 0.6
      }
    },
    {
      "doubleSided": true,
      "name": "Eyebrows",
      "pbrMetallicRoughness": {
        "baseColorTexture": {
          "index": 3
        },
        "metallicFactor": 0.0,
        "roughnessFactor": 0.6
      }
    }
  ],
  "meshes": [
    {
      "name": "Hi Poly_0",
      "primitives": [
        {
          "attributes": {
            "NORMAL": 1,
            "POSITION": 0,
            "TEXCOORD_0": 2
          },
          "indices": 3,
          "material": 0,
          "mode": 4
        }
      ]
    },
    {
      "name": "Hi Poly_1",
      "primitives": [
        {
          "attributes": {
            "NORMAL": 5,
            "POSITION": 4,
            "TEXCOORD_0": 6
          },
          "indices": 7,
          "material": 1,
          "mode": 4
        }
      ]
    },
    {
      "name": "Hi Poly_2",
      "primitives": [
        {
          "attributes": {
            "NORMAL": 9,
            "POSITION": 8,
            "TEXCOORD_0": 10
          },
          "indices": 11,
          "material": 2,
          "mode": 4
        }
      ]
    },
    {
      "name": "Hi Poly_3",
      "primitives": [
        {
          "attributes": {
            "NORMAL": 13,
            "POSITION": 12,
            "TEXCOORD_0": 14
          },
          "indices": 15,
          "material": 3,
          "mode": 4
        }
      ]
    },
    {
      "name": "Hi Poly_4",
      "primitives": [
        {
          "attributes": {
            "NORMAL": 17,
            "POSITION": 16,
            "TEXCOORD_0": 18
          },
          "indices": 19,
          "material": 4,
          "mode": 4
        }
      ]
    },
    {
      "name": "Hi Poly_5",
      "primitives": [
        {
          "attributes": {
            "NORMAL": 21,
            "POSITION": 20,
            "TEXCOORD_0": 22
          },
          "indices": 23,
          "material": 5,
          "mode": 4
        }
      ]
    },
    {
      "name": "Hi Poly_6",
      "primitives": [
        {
          "attributes": {
            "NORMAL": 25,
            "POSITION": 24,
            "TEXCOORD_0": 26
          },
          "indices": 27,
          "material": 6,
          "mode": 4
        }
      ]
    },
    {
      "name": "Hi Poly_7",
      "primitives": [
        {
          "attributes": {
            "NORMAL": 29,
            "POSITION": 28,
            "TEXCOORD_0": 30
          },
          "indices": 31,
          "material": 7,
          "mode": 4
        }
      ]
    },
    {
      "name": "Hi Poly_8",
      "primitives": [
        {
          "attributes": {
            "NORMAL": 33,
            "POSITION": 32,
            "TEXCOORD_0": 34
          },
          "indices": 35,
          "material": 8,
          "mode": 4
        }
      ]
    }
  ],
  "nodes": [
    {
      "children": [
        1
      ],
      "matrix": [
        1.0,
        0.0,
        0.0,
        0.0,
        0.0,
        2.220446049250313e-16,
        -1.0,
        0.0,
        0.0,
        1.0,
        2.220446049250313e-16,
        0.0,
        0.0,
        0.0,
        0.0,
        1.0
      ],
      "name": "Sketchfab_model"
    },
    {
      "children": [
        2,
        4,
        6
      ],
      "name": "Root"
    },
    {
      "children": [
        3
      ],
      "matrix": [
        -0.8506200000000002,
        0.3921200000000001,
        -0.35027,
        0.0,
        0.13181,
        -0.4858800000000001,
        -0.8640300000000001,
        0.0,
        -0.50899,
        -0.78113,
        0.36162000000000005,
        0.0,
        3.23496,
        -1.03283,
        1.73182,
        1.0
      ],
      "name": "Lamp"
    },
    {
      "name": "Lamp"
    },
    {
      "children": [
        5
      ],
      "matrix": [
        -0.07626000000000002,
        0.5258400000000001,
        -0.84716,
        0.0,
        -0.99442,
        -0.10224000000000001,
        0.026050000000000007,
        0.0,
        -0.07291,
        0.84441,
        0.53071,
        0.0,
        -2.40454,
        7.289690000000001,
        -0.4864800000000001,
        1.0
      ],
      "name": "Lamp.001"
    },
    {
      "name": "Lamp.001"
    },
    {
      "children": [
        7,
        8,
        9,
        10,
        11,
        12,
        13,
        14,
        15
      ],
      "matrix": [
        0.99187,
        0.0,
        0.0,
        0.0,
        0.0,
        0.99187,
        0.0,
        0.0,
        0.0,
        0.0,
        0.99187,
        0.0,
        -2.44195,
        0.0,
        3.3098099999999997,
        1.0
      ],
      "name": "Hi Poly"
    },
    {
      "mesh": 0,
      "name": "Hi Poly_0"
    },
    {
      "mesh": 1,
      "name": "Hi Poly_1"
    },
    {
      "mesh": 2,
      "name": "Hi Poly_2"
    },
    {
      "mesh": 3,
      "name": "Hi Poly_3"
    },
    {
      "mesh": 4,
      "name": "Hi Poly_4"
    },
    {
      "mesh": 5,
      "name": "Hi Poly_5"
    },
    {
      "mesh": 6,
      "name": "Hi Poly_6"
    },
    {
      "mesh": 7,
      "name": "Hi Poly_7"
    },
    {
      "mesh": 8,
      "name": "Hi Poly_8"
    }
  ],
  "samplers": [
    {
      "magFilter": 9729,
      "minFilter": 9987,
      "wrapS": 10497,
      "wrapT": 10497
    }
  ],
  "scene": 0,
  "scenes": [
    {
      "name": "Sketchfab_Scene",
      "nodes": [
        0
      ]
    }
  ],
  "textures": [
    {
      "sampler": 0,
      "source": 0
    },
    {
      "sampler": 0,
      "source": 1
    },
    {
      "sampler": 0,
      "source": 2
    },
    {
      "sampler": 0,
      "source": 3
    }
  ]
}
